<svg width="255" height="52" viewBox="0 0 255 52" fill="none" xmlns="http://www.w3.org/2000/svg">
<path d="M207.881 26.6654C207.937 26.7407 207.975 26.8349 207.975 26.9353C207.975 27.0106 207.962 27.086 207.925 27.1487C207.85 27.3057 207.687 27.4061 207.512 27.4061H205.848C205.704 27.4061 205.573 27.3433 205.485 27.224L200.005 20.0744H194.925V26.9416C194.925 27.1989 194.718 27.4061 194.462 27.4061H193.154C192.898 27.4061 192.691 27.1989 192.691 26.9416V9.25254C192.691 9.00145 192.898 8.7943 193.154 8.7943H200.561C204.603 8.7943 207.318 11.0039 207.318 14.2868V14.337C207.318 17.0676 205.535 19.0575 202.52 19.7166L207.875 26.6717L207.881 26.6654ZM205.091 14.3308C205.091 12.1965 203.37 10.9223 200.486 10.9223H194.925V17.959H200.411C203.252 17.959 205.091 16.5529 205.091 14.3747V14.3245V14.3308ZM188.587 26.7533C188.656 26.8976 188.643 27.0608 188.556 27.1927C188.468 27.3245 188.324 27.4061 188.168 27.4061H186.735C186.554 27.4061 186.391 27.2994 186.316 27.1362L184.195 22.4534H174.379L172.258 27.1362C172.183 27.2994 172.021 27.4061 171.839 27.4061H170.475C170.319 27.4061 170.175 27.3245 170.087 27.1927C170 27.0608 169.994 26.8914 170.056 26.747L178.264 8.92612C178.339 8.76292 178.502 8.65621 178.683 8.65621H179.947C180.122 8.65621 180.291 8.76292 180.366 8.92612L188.581 26.747L188.587 26.7533ZM179.303 11.6818L175.355 20.3443H183.219L179.297 11.6818H179.303ZM163.931 17.7581C166.052 18.6055 167.172 20.0869 167.172 22.0705V22.1207C167.172 25.3346 164.507 27.4124 160.39 27.4124H152.733C152.476 27.4124 152.27 27.2052 152.27 26.9479V9.25254C152.27 8.99517 152.476 8.78803 152.733 8.78803H160.015C163.769 8.78803 166.196 10.6775 166.196 13.5963V13.6465C166.196 15.4104 165.42 16.8228 163.938 17.7518L163.931 17.7581ZM160.447 25.2719C163.212 25.2719 164.926 24.0666 164.926 22.1207V22.0705C164.926 19.478 161.854 19.0951 160.021 19.0951H154.509V25.2719H160.447ZM159.865 16.9546C162.38 16.9546 163.938 15.7368 163.938 13.7784V13.7282C163.938 11.9768 162.461 10.9285 159.99 10.9285H154.503V16.9546H159.865ZM148.166 26.7533C148.228 26.8976 148.222 27.0608 148.134 27.1927C148.047 27.3245 147.903 27.4061 147.747 27.4061H146.314C146.132 27.4061 145.97 27.2994 145.895 27.1362L143.774 22.4534H133.958L131.837 27.1362C131.762 27.2994 131.599 27.4061 131.418 27.4061H130.06C129.904 27.4061 129.76 27.3245 129.672 27.1927C129.585 27.0608 129.578 26.8914 129.641 26.7533L137.855 8.9324C137.931 8.76919 138.093 8.66248 138.275 8.66248H139.532C139.714 8.66248 139.876 8.76919 139.951 8.9324L148.166 26.7533ZM138.881 11.6818L134.94 20.3443H142.804L138.881 11.6818ZM126.206 25.2719H116.309V9.25254C116.309 8.99517 116.103 8.78803 115.852 8.78803H114.539C114.288 8.78803 114.082 8.99517 114.082 9.25254V26.9479C114.082 27.2052 114.288 27.4124 114.539 27.4124H126.206C126.463 27.4124 126.669 27.2052 126.669 26.9479V25.7364C126.669 25.479 126.463 25.2781 126.206 25.2781V25.2719ZM109.972 26.7595C110.04 26.9039 110.028 27.0671 109.94 27.2052C109.853 27.337 109.709 27.4186 109.552 27.4186H108.12C107.938 27.4186 107.776 27.3119 107.701 27.1487L105.58 22.466H95.7637L93.6429 27.1487C93.5678 27.3119 93.4051 27.4186 93.2237 27.4186H91.8661C91.7097 27.4186 91.5595 27.337 91.4782 27.2052C91.3969 27.0734 91.3844 26.9102 91.4469 26.7658L99.6613 8.94495C99.7364 8.78175 99.8991 8.67504 100.08 8.67504H101.338C101.519 8.67504 101.682 8.78175 101.757 8.94495L109.972 26.7658V26.7595ZM100.681 11.6881L96.7397 20.3506H104.604L100.681 11.6881ZM86.8799 8.80058C87.1364 8.80058 87.3429 9.00773 87.3429 9.25881V26.9541C87.3429 27.2115 87.1364 27.4186 86.8799 27.4186H85.5723C85.3158 27.4186 85.1157 27.2115 85.1157 26.9541V13.0628L78.9721 22.0266C78.8845 22.1521 78.7406 22.2274 78.5967 22.2274H78.4966C78.3464 22.2274 78.2025 22.1521 78.1212 22.0266L71.9776 13.0628V26.9479C71.9776 27.2052 71.7712 27.4124 71.5209 27.4124H70.2634C70.0069 27.4124 69.8005 27.2052 69.8005 26.9479V9.25254C69.8005 9.00145 70.0069 8.7943 70.2634 8.7943H71.4959C71.646 8.7943 71.7899 8.86963 71.8775 8.99517L78.5779 18.9005L85.2783 8.99517C85.3659 8.86963 85.5098 8.7943 85.6599 8.7943H86.8924L86.8799 8.80058ZM204.803 37.6065C202.751 37.1671 202.376 36.6963 202.376 35.9305V35.9054C202.376 35.1019 203.133 34.5369 204.221 34.5369C205.178 34.5369 206.011 34.8508 206.836 35.5287L206.955 35.5601L207.062 35.4973L207.681 34.675C207.731 34.606 207.718 34.5118 207.656 34.4553C206.617 33.6205 205.598 33.2627 204.253 33.2627C202.369 33.2627 201.006 34.4114 201.006 35.9932V36.0184C201.006 37.8136 202.319 38.4664 204.29 38.8933C206.248 39.3076 206.611 39.7721 206.611 40.5316V40.5567C206.611 41.4104 205.817 42.0005 204.672 42.0005C203.471 42.0005 202.563 41.6239 201.556 40.7074L201.437 40.6634L201.325 40.7199L200.668 41.4983C200.611 41.5611 200.618 41.6615 200.686 41.718C201.869 42.7726 203.12 43.2685 204.634 43.2685C206.617 43.2685 208 42.1072 208 40.4437V40.4186C208 38.931 207.049 38.0835 204.816 37.5939L204.803 37.6065ZM193.767 33.3882C196.751 33.3882 198.922 35.4283 198.922 38.2342V38.2593C198.922 41.084 196.758 43.1367 193.767 43.1367H190.501C190.414 43.1367 190.345 43.0676 190.345 42.9797V33.5451C190.345 33.4573 190.414 33.3882 190.501 33.3882H193.767ZM191.721 41.8373H193.767C195.969 41.8373 197.502 40.381 197.502 38.2907V38.2656C197.502 36.1627 195.963 34.6876 193.767 34.6876H191.721V41.8373ZM187.304 33.3882H186.272C186.185 33.3882 186.116 33.4573 186.116 33.5451V40.6509L180.473 33.451L180.348 33.3882H179.353C179.265 33.3882 179.196 33.4573 179.196 33.5451V42.9797C179.196 43.0676 179.265 43.1367 179.353 43.1367H180.385C180.473 43.1367 180.542 43.0676 180.542 42.9797V35.6982L186.329 43.0739L186.454 43.1367H187.298C187.386 43.1367 187.455 43.0676 187.455 42.9797V33.5451C187.455 33.4573 187.386 33.3882 187.298 33.3882H187.304ZM171.783 33.225C174.586 33.225 176.7 35.3592 176.719 38.1965L176.731 38.2467L176.719 38.297C176.7 41.1029 174.523 43.2936 171.752 43.2936C168.98 43.2936 166.809 41.1405 166.809 38.2844V38.2593C166.809 35.4346 168.993 33.225 171.777 33.225H171.783ZM171.777 42.0005C173.785 42.0005 175.299 40.4061 175.299 38.2907V38.2656C175.299 36.1376 173.772 34.5307 171.752 34.5307C169.731 34.5307 168.229 36.1251 168.229 38.2405V38.2656C168.229 40.3935 169.756 42.0005 171.777 42.0005ZM164.188 33.3882H163.112L162.98 33.4573L159.683 38.41L156.386 33.4573L156.255 33.3882H155.179C155.091 33.3882 155.022 33.4573 155.022 33.5451V42.9797C155.022 43.0676 155.091 43.1367 155.179 43.1367H156.211C156.299 43.1367 156.368 43.0676 156.368 42.9797V35.8614L159.508 40.4814L159.64 40.5505H159.696L159.827 40.4814L162.968 35.8489V42.9797C162.968 43.0676 163.037 43.1367 163.124 43.1367H164.188C164.275 43.1367 164.344 43.0676 164.344 42.9797V33.5451C164.344 33.4573 164.275 33.3882 164.188 33.3882ZM152.939 42.917L152.927 43.0676L152.795 43.1367H151.657C151.594 43.1367 151.538 43.099 151.513 43.0425L150.455 40.6446H145.544L144.468 43.0425C144.443 43.099 144.387 43.1367 144.324 43.1367H143.236L143.104 43.0676L143.092 42.917L147.377 33.4133C147.402 33.3568 147.459 33.3192 147.521 33.3192H148.516C148.579 33.3192 148.635 33.3568 148.66 33.4133L152.945 42.917H152.939ZM147.997 35.1082L146.089 39.3766H149.886L147.99 35.1082H147.997ZM140.746 33.3882H139.682C139.595 33.3882 139.526 33.4573 139.526 33.5451V42.9797C139.526 43.0676 139.595 43.1367 139.682 43.1367H140.746C140.833 43.1367 140.902 43.0676 140.902 42.9797V33.5451C140.902 33.4573 140.833 33.3882 140.746 33.3882ZM131.812 33.3882C134.796 33.3882 136.967 35.4283 136.967 38.2342V38.2593C136.967 41.084 134.796 43.1367 131.812 43.1367H128.546C128.459 43.1367 128.39 43.0676 128.39 42.9797V33.5451C128.39 33.4573 128.459 33.3882 128.546 33.3882H131.812ZM129.766 41.8373H131.812C134.014 41.8373 135.547 40.381 135.547 38.2907V38.2656C135.547 36.1627 134.008 34.6876 131.812 34.6876H129.766V41.8373ZM123.673 42.4399L123.716 42.5592L123.654 42.6721L122.847 43.2936L122.753 43.325L122.64 43.2747L121.277 41.8687C120.363 42.8102 119.356 43.2685 118.198 43.2685C116.397 43.2685 115.083 42.0884 115.083 40.4689V40.4437C115.083 39.2323 115.834 38.2719 117.254 37.6567C116.653 36.916 116.415 36.3385 116.415 35.648V35.6229C116.415 34.2356 117.529 33.225 119.056 33.225C120.426 33.225 121.495 34.2294 121.495 35.5099V35.535C121.495 36.6586 120.795 37.4998 119.406 38.0522L121.251 39.9353C121.608 39.3955 121.946 38.7489 122.259 38.0208L122.346 37.9329H122.471L123.347 38.3409L123.429 38.4288V38.548C122.953 39.5461 122.553 40.2617 122.134 40.8392L123.679 42.4273L123.673 42.4399ZM120.194 35.5664C120.194 34.901 119.7 34.4177 119.024 34.4177C118.292 34.4177 117.754 34.9261 117.754 35.6229V35.648C117.754 36.1376 117.948 36.508 118.586 37.2047C119.669 36.8218 120.194 36.2945 120.194 35.5978V35.5727V35.5664ZM116.478 40.4312C116.478 41.3728 117.235 42.0507 118.28 42.0507C119.018 42.0507 119.737 41.6929 120.413 40.9836L118.08 38.5669C117.047 38.9686 116.478 39.6214 116.478 40.4061V40.4312ZM105.505 33.3882C108.489 33.3882 110.66 35.4283 110.66 38.2342V38.2593C110.66 41.084 108.495 43.1367 105.505 43.1367H102.239C102.151 43.1367 102.082 43.0676 102.082 42.9797V33.5451C102.082 33.4573 102.151 33.3882 102.239 33.3882H105.505ZM103.459 41.8373H105.505C107.707 41.8373 109.24 40.381 109.24 38.2907V38.2656C109.24 36.1627 107.701 34.6876 105.505 34.6876H103.459V41.8373ZM99.7427 41.8373H94.6063V33.5451C94.6063 33.4573 94.5375 33.3882 94.4499 33.3882H93.3864C93.2988 33.3882 93.2299 33.4573 93.2299 33.5451V42.9797C93.2299 43.0676 93.2988 43.1367 93.3864 43.1367H99.7364C99.824 43.1367 99.8928 43.0676 99.8928 42.9797V41.9942C99.8928 41.9063 99.824 41.8373 99.7364 41.8373H99.7427ZM85.8226 33.225C88.6254 33.225 90.74 35.3592 90.7588 38.1965L90.7713 38.2467L90.7588 38.297C90.74 41.1029 88.5628 43.2936 85.7913 43.2936C83.0198 43.2936 80.8489 41.1405 80.8489 38.2844V38.2593C80.8489 35.4346 83.0323 33.225 85.8163 33.225H85.8226ZM85.8163 42.0005C87.8246 42.0005 89.3386 40.4061 89.3386 38.2907V38.2656C89.3386 36.1376 87.8121 34.5307 85.7913 34.5307C83.7706 34.5307 82.2691 36.1251 82.2691 38.2405V38.2656C82.2691 40.3935 83.7956 42.0005 85.8226 42.0005H85.8163ZM78.5028 37.7822C78.5904 37.7822 78.6592 37.8513 78.6592 37.9392V41.6992L78.6092 41.8185C77.9898 42.3708 76.6635 43.2999 74.7304 43.2999C71.8212 43.2999 69.788 41.2409 69.788 38.2907V38.2656C69.788 35.4409 71.9276 33.2313 74.6615 33.2313C76.138 33.2313 77.1828 33.6079 78.2714 34.5244L78.3277 34.6311L78.2901 34.7441L77.6082 35.5538L77.5018 35.6103L77.3892 35.5727C76.7699 35.0328 76.0066 34.5307 74.6303 34.5307C72.7159 34.5307 71.2144 36.1627 71.2144 38.2405V38.2656C71.2144 40.5191 72.647 42.0319 74.7804 42.0319C75.6938 42.0319 76.6448 41.7117 77.3392 41.1719V39.0628H74.6365C74.5489 39.0628 74.4801 38.9937 74.4801 38.9058V37.9517C74.4801 37.8638 74.5489 37.7948 74.6365 37.7948H78.5216L78.5028 37.7822ZM38.1566 11.5186C38.044 11.5186 37.9314 11.5625 37.8563 11.6441L25.8882 23.6398L13.9263 11.6504C13.845 11.5688 13.7386 11.5249 13.6198 11.5249H11.9368C11.6991 11.5249 11.5052 11.7195 11.5052 11.958V40.042C11.5052 40.2805 11.6991 40.4751 11.9368 40.4751H13.5322C13.7699 40.4751 13.9638 40.2805 13.9638 40.042V15.1593L24.1552 25.3848L21.146 28.4042C23.173 28.4042 24.5619 28.4544 25.8882 27.1173C27.2145 28.4481 28.6034 28.4042 30.6304 28.4042L27.6211 25.3848L37.8188 15.1468V40.042C37.8188 40.2805 38.0127 40.4751 38.2504 40.4751H39.8896C40.1273 40.4751 40.3212 40.2805 40.3212 40.042V11.9517C40.3212 11.7132 40.1273 11.5186 39.8896 11.5186H38.1628H38.1566ZM24.2616 30.2873C24.2616 31.1975 24.9998 31.9382 25.9069 31.9382C26.8141 31.9382 27.5523 31.1975 27.5523 30.2873C27.5523 29.3771 26.8141 28.6364 25.9069 28.6364C24.9998 28.6364 24.2616 29.3771 24.2616 30.2873ZM25.9132 0C11.599 0 0 11.6379 0 26C0 40.3621 11.599 52 25.9132 52C40.2274 52 51.8264 40.3621 51.8264 26C51.8264 11.6379 40.2211 0 25.9132 0ZM2.50248 26C2.50248 13.0251 12.9816 2.51086 25.9132 2.51086C38.8448 2.51086 49.3239 13.0251 49.3239 26C49.3239 38.9749 38.8448 49.4891 25.9132 49.4891C12.9816 49.4891 2.50248 38.9686 2.50248 26Z" fill="white"/>
</svg>
